<?xml version="1.0" encoding="UTF-8" standalone="no"?>
<!DOCTYPE svg PUBLIC "-//W3C//DTD SVG 1.0//EN" "http://www.w3.org/TR/2001/PR-SVG-20010719/DTD/svg10.dtd">
<svg width="63cm" height="74cm" viewBox="33 5 1260 1466" xmlns="http://www.w3.org/2000/svg" xmlns:xlink="http://www.w3.org/1999/xlink">
  <g>
    <polygon style="fill: #ffffff" points="182.298,111.967 269.205,153.337 182.298,194.708 95.3916,153.337 "/>
    <polygon style="fill: none; fill-opacity:0; stroke-width: 2; stroke: #000000" points="182.298,111.967 269.205,153.337 182.298,194.708 95.3916,153.337 "/>
    <text font-size="12.7998" style="fill: #000000;text-anchor:middle;font-family:sans-serif;font-style:normal;font-weight:normal" x="182.298" y="157.237">
      <tspan x="182.298" y="157.237">Moneylender?</tspan>
    </text>
  </g>
  <g>
    <rect style="fill: #ffffff" x="335" y="136" width="61.85" height="38"/>
    <rect style="fill: none; fill-opacity:0; stroke-width: 2; stroke: #000000" x="335" y="136" width="61.85" height="38"/>
    <text font-size="12.7998" style="fill: #000000;text-anchor:middle;font-family:sans-serif;font-style:normal;font-weight:normal" x="365.925" y="158.9">
      <tspan x="365.925" y="158.9">Repay</tspan>
    </text>
  </g>
  <g>
    <rect style="fill: #ffffff" x="469.45" y="136.7" width="66.95" height="38"/>
    <rect style="fill: none; fill-opacity:0; stroke-width: 2; stroke: #000000" x="469.45" y="136.7" width="66.95" height="38"/>
    <text font-size="12.7998" style="fill: #000000;text-anchor:middle;font-family:sans-serif;font-style:normal;font-weight:normal" x="502.925" y="159.6">
      <tspan x="502.925" y="159.6">Borrow</tspan>
    </text>
  </g>
  <g>
    <polygon style="fill: #ffffff" points="882,127.543 936.913,155 882,182.457 827.087,155 "/>
    <polygon style="fill: none; fill-opacity:0; stroke-width: 2; stroke: #000000" points="882,127.543 936.913,155 882,182.457 827.087,155 "/>
    <text font-size="12.7998" style="fill: #000000;text-anchor:middle;font-family:sans-serif;font-style:normal;font-weight:normal" x="882" y="158.9">
      <tspan x="882" y="158.9">Pay?</tspan>
    </text>
  </g>
  <g>
    <polygon style="fill: #ffffff" points="181.694,276 247.206,314.159 181.694,352.317 116.181,314.159 "/>
    <polygon style="fill: none; fill-opacity:0; stroke-width: 2; stroke: #000000" points="181.694,276 247.206,314.159 181.694,352.317 116.181,314.159 "/>
    <text font-size="12.7998" style="fill: #000000;text-anchor:middle;font-family:sans-serif;font-style:normal;font-weight:normal" x="181.694" y="318.059">
      <tspan x="181.694" y="318.059">Buy gun?</tspan>
    </text>
  </g>
  <g>
    <polygon style="fill: #ffffff" points="412.438,278 475.876,315.5 412.438,353 349,315.5 "/>
    <polygon style="fill: none; fill-opacity:0; stroke-width: 2; stroke: #000000" points="412.438,278 475.876,315.5 412.438,353 349,315.5 "/>
    <text font-size="12.7998" style="fill: #000000;text-anchor:middle;font-family:sans-serif;font-style:normal;font-weight:normal" x="412.438" y="319.4">
      <tspan x="412.438" y="319.4">Repairs?</tspan>
    </text>
  </g>
  <g>
    <polygon style="fill: #ffffff" points="666.411,272.746 732.122,314.963 666.411,357.18 600.701,314.963 "/>
    <polygon style="fill: none; fill-opacity:0; stroke-width: 2; stroke: #000000" points="666.411,272.746 732.122,314.963 666.411,357.18 600.701,314.963 "/>
    <text font-size="12.7998" style="fill: #000000;text-anchor:middle;font-family:sans-serif;font-style:normal;font-weight:normal" x="666.411" y="318.863">
      <tspan x="666.411" y="318.863">New ship?</tspan>
    </text>
  </g>
  <g>
    <line style="fill: none; fill-opacity:0; stroke-width: 2; stroke: #000000" x1="247.206" y1="314.159" x2="339.265" y2="315.372"/>
    <polygon style="fill: #000000" points="346.764,315.471 336.699,320.338 339.265,315.372 336.831,310.339 "/>
    <polygon style="fill: none; fill-opacity:0; stroke-width: 2; stroke: #000000" points="346.764,315.471 336.699,320.338 339.265,315.372 336.831,310.339 "/>
  </g>
  <g>
    <line style="fill: none; fill-opacity:0; stroke-width: 2; stroke: #000000" x1="475.876" y1="315.5" x2="590.965" y2="315.005"/>
    <polygon style="fill: #000000" points="598.465,314.973 588.486,320.016 590.965,315.005 588.443,310.016 "/>
    <polygon style="fill: none; fill-opacity:0; stroke-width: 2; stroke: #000000" points="598.465,314.973 588.486,320.016 590.965,315.005 588.443,310.016 "/>
  </g>
  <g>
    <rect style="fill: #ffffff" x="172.3" y="438" width="355.4" height="52.75"/>
    <rect style="fill: none; fill-opacity:0; stroke-width: 2; stroke: #000000" x="172.3" y="438" width="355.4" height="52.75"/>
    <text font-size="12.7998" style="fill: #000000;text-anchor:middle;font-family:sans-serif;font-style:normal;font-weight:normal" x="350" y="468.275">
      <tspan x="350" y="468.275">Shall I Buy, Sell, [Visit Bank], [Transfer Cargo], Quit?</tspan>
    </text>
  </g>
  <g>
    <polyline style="fill: none; fill-opacity:0; stroke-width: 2; stroke: #000000" points="181.694,352.317 181.694,403 350,403 350,428.264 "/>
    <polygon style="fill: #000000" points="350,435.764 345,425.764 350,428.264 355,425.764 "/>
    <polygon style="fill: none; fill-opacity:0; stroke-width: 2; stroke: #000000" points="350,435.764 345,425.764 350,428.264 355,425.764 "/>
  </g>
  <polyline style="fill: none; fill-opacity:0; stroke-width: 2; stroke: #000000" points="666.411,357.18 666.411,403 350,403 350,438 "/>
  <g>
    <rect style="fill: #ffffff" x="616.3" y="138" width="127.4" height="38"/>
    <rect style="fill: none; fill-opacity:0; stroke-width: 2; stroke: #000000" x="616.3" y="138" width="127.4" height="38"/>
    <text font-size="12.7998" style="fill: #000000;text-anchor:middle;font-family:sans-serif;font-style:normal;font-weight:normal" x="680" y="160.9">
      <tspan x="680" y="160.9">Li Yuen Message</tspan>
    </text>
  </g>
  <g>
    <polygon style="fill: #ffffff" points="241,525.768 293.463,552 241,578.232 188.537,552 "/>
    <polygon style="fill: none; fill-opacity:0; stroke-width: 2; stroke: #000000" points="241,525.768 293.463,552 241,578.232 188.537,552 "/>
    <text font-size="12.7998" style="fill: #000000;text-anchor:middle;font-family:sans-serif;font-style:normal;font-weight:normal" x="241" y="555.9">
      <tspan x="241" y="555.9">Buy</tspan>
    </text>
  </g>
  <g>
    <polygon style="fill: #ffffff" points="241.563,596.7 294.026,622.932 241.563,649.163 189.1,622.932 "/>
    <polygon style="fill: none; fill-opacity:0; stroke-width: 2; stroke: #000000" points="241.563,596.7 294.026,622.932 241.563,649.163 189.1,622.932 "/>
    <text font-size="12.7998" style="fill: #000000;text-anchor:middle;font-family:sans-serif;font-style:normal;font-weight:normal" x="241.563" y="626.832">
      <tspan x="241.563" y="626.832">Sell</tspan>
    </text>
  </g>
  <g>
    <polygon style="fill: #ffffff" points="241.663,664.675 313.576,700.632 241.663,736.588 169.75,700.632 "/>
    <polygon style="fill: none; fill-opacity:0; stroke-width: 2; stroke: #000000" points="241.663,664.675 313.576,700.632 241.663,736.588 169.75,700.632 "/>
    <text font-size="12.7998" style="fill: #000000;text-anchor:middle;font-family:sans-serif;font-style:normal;font-weight:normal" x="241.663" y="704.532">
      <tspan x="241.663" y="704.532">Visit Bank</tspan>
    </text>
  </g>
  <g>
    <polygon style="fill: #ffffff" points="242.763,754.35 324.726,795.332 242.763,836.313 160.8,795.332 "/>
    <polygon style="fill: none; fill-opacity:0; stroke-width: 2; stroke: #000000" points="242.763,754.35 324.726,795.332 242.763,836.313 160.8,795.332 "/>
    <text font-size="12.7998" style="fill: #000000;text-anchor:middle;font-family:sans-serif;font-style:normal;font-weight:normal" x="242.763" y="791.232">
      <tspan x="242.763" y="791.232">Transfer</tspan>
      <tspan x="242.763" y="807.232">Cargo</tspan>
    </text>
  </g>
  <g>
    <rect style="fill: #ffffff" x="338.625" y="536" width="88.75" height="38"/>
    <rect style="fill: none; fill-opacity:0; stroke-width: 2; stroke: #000000" x="338.625" y="536" width="88.75" height="38"/>
    <text font-size="12.7998" style="fill: #000000;text-anchor:middle;font-family:sans-serif;font-style:normal;font-weight:normal" x="383" y="558.9">
      <tspan x="383" y="558.9">Buy what?</tspan>
    </text>
  </g>
  <g>
    <rect style="fill: #ffffff" x="488.75" y="535" width="96.5" height="38"/>
    <rect style="fill: none; fill-opacity:0; stroke-width: 2; stroke: #000000" x="488.75" y="535" width="96.5" height="38"/>
    <text font-size="12.7998" style="fill: #000000;text-anchor:middle;font-family:sans-serif;font-style:normal;font-weight:normal" x="537" y="557.9">
      <tspan x="537" y="557.9">How much?</tspan>
    </text>
  </g>
  <g>
    <rect style="fill: #ffffff" x="340.1" y="605.7" width="88.75" height="38"/>
    <rect style="fill: none; fill-opacity:0; stroke-width: 2; stroke: #000000" x="340.1" y="605.7" width="88.75" height="38"/>
    <text font-size="12.7998" style="fill: #000000;text-anchor:middle;font-family:sans-serif;font-style:normal;font-weight:normal" x="384.475" y="628.6">
      <tspan x="384.475" y="628.6">Sell what?</tspan>
    </text>
  </g>
  <g>
    <rect style="fill: #ffffff" x="490.225" y="604.7" width="96.5" height="38"/>
    <rect style="fill: none; fill-opacity:0; stroke-width: 2; stroke: #000000" x="490.225" y="604.7" width="96.5" height="38"/>
    <text font-size="12.7998" style="fill: #000000;text-anchor:middle;font-family:sans-serif;font-style:normal;font-weight:normal" x="538.475" y="627.6">
      <tspan x="538.475" y="627.6">How much?</tspan>
    </text>
  </g>
  <g>
    <rect style="fill: #ffffff" x="345.525" y="677" width="70.95" height="38"/>
    <rect style="fill: none; fill-opacity:0; stroke-width: 2; stroke: #000000" x="345.525" y="677" width="70.95" height="38"/>
    <text font-size="12.7998" style="fill: #000000;text-anchor:middle;font-family:sans-serif;font-style:normal;font-weight:normal" x="381" y="699.9">
      <tspan x="381" y="699.9">Deposit</tspan>
    </text>
  </g>
  <g>
    <rect style="fill: #ffffff" x="491.325" y="675.4" width="96.5" height="38"/>
    <rect style="fill: none; fill-opacity:0; stroke-width: 2; stroke: #000000" x="491.325" y="675.4" width="96.5" height="38"/>
    <text font-size="12.7998" style="fill: #000000;text-anchor:middle;font-family:sans-serif;font-style:normal;font-weight:normal" x="539.575" y="698.3">
      <tspan x="539.575" y="698.3">Withdraw</tspan>
    </text>
  </g>
  <g>
    <rect style="fill: #ffffff" x="347.275" y="769.85" width="98.55" height="54"/>
    <rect style="fill: none; fill-opacity:0; stroke-width: 2; stroke: #000000" x="347.275" y="769.85" width="98.55" height="54"/>
    <text font-size="12.7998" style="fill: #000000;text-anchor:middle;font-family:sans-serif;font-style:normal;font-weight:normal" x="396.55" y="792.75">
      <tspan x="396.55" y="792.75">What to </tspan>
      <tspan x="396.55" y="808.75">warehouse?</tspan>
    </text>
  </g>
  <g>
    <rect style="fill: #ffffff" x="506.425" y="776.85" width="96.5" height="38"/>
    <rect style="fill: none; fill-opacity:0; stroke-width: 2; stroke: #000000" x="506.425" y="776.85" width="96.5" height="38"/>
    <text font-size="12.7998" style="fill: #000000;text-anchor:middle;font-family:sans-serif;font-style:normal;font-weight:normal" x="554.675" y="799.75">
      <tspan x="554.675" y="799.75">How much?</tspan>
    </text>
  </g>
  <g>
    <rect style="fill: #ffffff" x="635.1" y="768.45" width="98.55" height="54"/>
    <rect style="fill: none; fill-opacity:0; stroke-width: 2; stroke: #000000" x="635.1" y="768.45" width="98.55" height="54"/>
    <text font-size="12.7998" style="fill: #000000;text-anchor:middle;font-family:sans-serif;font-style:normal;font-weight:normal" x="684.375" y="791.35">
      <tspan x="684.375" y="791.35">What to </tspan>
      <tspan x="684.375" y="807.35">ship?</tspan>
    </text>
  </g>
  <g>
    <rect style="fill: #ffffff" x="794.25" y="775.45" width="96.5" height="38"/>
    <rect style="fill: none; fill-opacity:0; stroke-width: 2; stroke: #000000" x="794.25" y="775.45" width="96.5" height="38"/>
    <text font-size="12.7998" style="fill: #000000;text-anchor:middle;font-family:sans-serif;font-style:normal;font-weight:normal" x="842.5" y="798.35">
      <tspan x="842.5" y="798.35">How much?</tspan>
    </text>
  </g>
  <g>
    <polygon style="fill: #ffffff" points="238.563,871.887 292.151,898.682 238.563,925.476 184.975,898.682 "/>
    <polygon style="fill: none; fill-opacity:0; stroke-width: 2; stroke: #000000" points="238.563,871.887 292.151,898.682 238.563,925.476 184.975,898.682 "/>
    <text font-size="12.7998" style="fill: #000000;text-anchor:middle;font-family:sans-serif;font-style:normal;font-weight:normal" x="238.563" y="902.582">
      <tspan x="238.563" y="902.582">Quit</tspan>
    </text>
  </g>
  <g>
    <line style="fill: none; fill-opacity:0; stroke-width: 2; stroke: #000000" x1="293.463" y1="552" x2="328.91" y2="554.355"/>
    <polygon style="fill: #000000" points="336.394,554.852 326.084,559.178 328.91,554.355 326.747,549.2 "/>
    <polygon style="fill: none; fill-opacity:0; stroke-width: 2; stroke: #000000" points="336.394,554.852 326.084,559.178 328.91,554.355 326.747,549.2 "/>
  </g>
  <g>
    <line style="fill: none; fill-opacity:0; stroke-width: 2; stroke: #000000" x1="427.375" y1="555" x2="479.015" y2="554.159"/>
    <polygon style="fill: #000000" points="486.514,554.036 476.597,559.199 479.015,554.159 476.434,549.2 "/>
    <polygon style="fill: none; fill-opacity:0; stroke-width: 2; stroke: #000000" points="486.514,554.036 476.597,559.199 479.015,554.159 476.434,549.2 "/>
  </g>
  <g>
    <line style="fill: none; fill-opacity:0; stroke-width: 2; stroke: #000000" x1="294.026" y1="622.932" x2="330.371" y2="624.327"/>
    <polygon style="fill: #000000" points="337.866,624.614 327.681,629.227 330.371,624.327 328.065,619.234 "/>
    <polygon style="fill: none; fill-opacity:0; stroke-width: 2; stroke: #000000" points="337.866,624.614 327.681,629.227 330.371,624.327 328.065,619.234 "/>
  </g>
  <g>
    <line style="fill: none; fill-opacity:0; stroke-width: 2; stroke: #000000" x1="428.85" y1="624.7" x2="480.49" y2="623.859"/>
    <polygon style="fill: #000000" points="487.989,623.736 478.072,628.899 480.49,623.859 477.909,618.9 "/>
    <polygon style="fill: none; fill-opacity:0; stroke-width: 2; stroke: #000000" points="487.989,623.736 478.072,628.899 480.49,623.859 477.909,618.9 "/>
  </g>
  <g>
    <line style="fill: none; fill-opacity:0; stroke-width: 2; stroke: #000000" x1="313.576" y1="700.632" x2="335.89" y2="697.397"/>
    <polygon style="fill: #000000" points="343.312,696.321 334.133,702.704 335.89,697.397 332.698,692.807 "/>
    <polygon style="fill: none; fill-opacity:0; stroke-width: 2; stroke: #000000" points="343.312,696.321 334.133,702.704 335.89,697.397 332.698,692.807 "/>
  </g>
  <g>
    <line style="fill: none; fill-opacity:0; stroke-width: 2; stroke: #000000" x1="416.475" y1="696" x2="481.591" y2="694.608"/>
    <polygon style="fill: #000000" points="489.089,694.448 479.199,699.66 481.591,694.608 478.985,689.663 "/>
    <polygon style="fill: none; fill-opacity:0; stroke-width: 2; stroke: #000000" points="489.089,694.448 479.199,699.66 481.591,694.608 478.985,689.663 "/>
  </g>
  <g>
    <line style="fill: none; fill-opacity:0; stroke-width: 2; stroke: #000000" x1="324.726" y1="795.332" x2="337.561" y2="796.196"/>
    <polygon style="fill: #000000" points="345.044,796.7 334.731,801.017 337.561,796.196 335.403,791.039 "/>
    <polygon style="fill: none; fill-opacity:0; stroke-width: 2; stroke: #000000" points="345.044,796.7 334.731,801.017 337.561,796.196 335.403,791.039 "/>
  </g>
  <g>
    <line style="fill: none; fill-opacity:0; stroke-width: 2; stroke: #000000" x1="445.825" y1="796.85" x2="496.69" y2="796.011"/>
    <polygon style="fill: #000000" points="504.189,795.887 494.273,801.051 496.69,796.011 494.108,791.053 "/>
    <polygon style="fill: none; fill-opacity:0; stroke-width: 2; stroke: #000000" points="504.189,795.887 494.273,801.051 496.69,796.011 494.108,791.053 "/>
  </g>
  <g>
    <line style="fill: none; fill-opacity:0; stroke-width: 2; stroke: #000000" x1="602.925" y1="795.85" x2="625.365" y2="795.571"/>
    <polygon style="fill: #000000" points="632.864,795.478 622.927,800.602 625.365,795.571 622.803,790.602 "/>
    <polygon style="fill: none; fill-opacity:0; stroke-width: 2; stroke: #000000" points="632.864,795.478 622.927,800.602 625.365,795.571 622.803,790.602 "/>
  </g>
  <g>
    <line style="fill: none; fill-opacity:0; stroke-width: 2; stroke: #000000" x1="733.65" y1="795.45" x2="784.515" y2="794.611"/>
    <polygon style="fill: #000000" points="792.014,794.487 782.098,799.651 784.515,794.611 781.933,789.653 "/>
    <polygon style="fill: none; fill-opacity:0; stroke-width: 2; stroke: #000000" points="792.014,794.487 782.098,799.651 784.515,794.611 781.933,789.653 "/>
  </g>
  <g>
    <polyline style="fill: none; fill-opacity:0; stroke-width: 2; stroke: #000000" points="172.3,464.375 93,464.375 93,898.682 175.239,898.682 "/>
    <polygon style="fill: #000000" points="182.739,898.682 172.739,903.682 175.239,898.682 172.739,893.682 "/>
    <polygon style="fill: none; fill-opacity:0; stroke-width: 2; stroke: #000000" points="182.739,898.682 172.739,903.682 175.239,898.682 172.739,893.682 "/>
  </g>
  <g>
    <polyline style="fill: none; fill-opacity:0; stroke-width: 2; stroke: #000000" points="172.3,464.375 93,464.375 93,795.332 151.064,795.332 "/>
    <polygon style="fill: #000000" points="158.564,795.332 148.564,800.332 151.064,795.332 148.564,790.332 "/>
    <polygon style="fill: none; fill-opacity:0; stroke-width: 2; stroke: #000000" points="158.564,795.332 148.564,800.332 151.064,795.332 148.564,790.332 "/>
  </g>
  <g>
    <polyline style="fill: none; fill-opacity:0; stroke-width: 2; stroke: #000000" points="172.3,464.375 93,464.375 93,700.632 160.014,700.632 "/>
    <polygon style="fill: #000000" points="167.514,700.632 157.514,705.632 160.014,700.632 157.514,695.632 "/>
    <polygon style="fill: none; fill-opacity:0; stroke-width: 2; stroke: #000000" points="167.514,700.632 157.514,705.632 160.014,700.632 157.514,695.632 "/>
  </g>
  <g>
    <polyline style="fill: none; fill-opacity:0; stroke-width: 2; stroke: #000000" points="171.3,464.375 93,464.375 93,622.932 178.364,622.932 "/>
    <polygon style="fill: #000000" points="185.864,622.932 175.864,627.932 178.364,622.932 175.864,617.932 "/>
    <polygon style="fill: none; fill-opacity:0; stroke-width: 2; stroke: #000000" points="185.864,622.932 175.864,627.932 178.364,622.932 175.864,617.932 "/>
  </g>
  <g>
    <polyline style="fill: none; fill-opacity:0; stroke-width: 2; stroke: #000000" points="171.3,464.375 93,464.375 93,552 177.801,552 "/>
    <polygon style="fill: #000000" points="185.301,552 175.301,557 177.801,552 175.301,547 "/>
    <polygon style="fill: none; fill-opacity:0; stroke-width: 2; stroke: #000000" points="185.301,552 175.301,557 177.801,552 175.301,547 "/>
  </g>
  <g>
    <polyline style="fill: none; fill-opacity:0; stroke-width: 2; stroke: #000000" points="585.25,554 629,554 629,464.375 537.436,464.375 "/>
    <polygon style="fill: #000000" points="529.936,464.375 539.936,459.375 537.436,464.375 539.936,469.375 "/>
    <polygon style="fill: none; fill-opacity:0; stroke-width: 2; stroke: #000000" points="529.936,464.375 539.936,459.375 537.436,464.375 539.936,469.375 "/>
  </g>
  <g>
    <polyline style="fill: none; fill-opacity:0; stroke-width: 2; stroke: #000000" points="586.725,623.7 706.636,623.7 706.636,464.375 537.436,464.375 "/>
    <polygon style="fill: #000000" points="529.936,464.375 539.936,459.375 537.436,464.375 539.936,469.375 "/>
    <polygon style="fill: none; fill-opacity:0; stroke-width: 2; stroke: #000000" points="529.936,464.375 539.936,459.375 537.436,464.375 539.936,469.375 "/>
  </g>
  <g>
    <polyline style="fill: none; fill-opacity:0; stroke-width: 2; stroke: #000000" points="587.825,694.4 801,694.4 801,464.375 537.436,464.375 "/>
    <polygon style="fill: #000000" points="529.936,464.375 539.936,459.375 537.436,464.375 539.936,469.375 "/>
    <polygon style="fill: none; fill-opacity:0; stroke-width: 2; stroke: #000000" points="529.936,464.375 539.936,459.375 537.436,464.375 539.936,469.375 "/>
  </g>
  <g>
    <polyline style="fill: none; fill-opacity:0; stroke-width: 2; stroke: #000000" points="890.75,794.45 974,794.45 974,464.375 537.436,464.375 "/>
    <polygon style="fill: #000000" points="529.936,464.375 539.936,459.375 537.436,464.375 539.936,469.375 "/>
    <polygon style="fill: none; fill-opacity:0; stroke-width: 2; stroke: #000000" points="529.936,464.375 539.936,459.375 537.436,464.375 539.936,469.375 "/>
  </g>
  <g>
    <rect style="fill: #ffffff" x="131.15" y="986.25" width="607.85" height="38"/>
    <rect style="fill: none; fill-opacity:0; stroke-width: 2; stroke: #000000" x="131.15" y="986.25" width="607.85" height="38"/>
    <text font-size="12.7998" style="fill: #000000;text-anchor:middle;font-family:sans-serif;font-style:normal;font-weight:normal" x="435.075" y="1009.15">
      <tspan x="435.075" y="1009.15">Where do you wish to go?</tspan>
    </text>
  </g>
  <g>
    <polygon style="fill: #ffffff" points="436.553,1083.72 523.869,1129.44 436.553,1175.16 349.237,1129.44 "/>
    <polygon style="fill: none; fill-opacity:0; stroke-width: 2; stroke: #000000" points="436.553,1083.72 523.869,1129.44 436.553,1175.16 349.237,1129.44 "/>
    <text font-size="12.7998" style="fill: #000000;text-anchor:middle;font-family:sans-serif;font-style:normal;font-weight:normal" x="436.553" y="1133.34">
      <tspan x="436.553" y="1133.34">Select port city</tspan>
    </text>
  </g>
  <g>
    <line style="fill: none; fill-opacity:0; stroke-width: 2; stroke: #000000" x1="435.075" y1="1024.25" x2="436.311" y2="1073.99"/>
    <polygon style="fill: #000000" points="436.497,1081.49 431.251,1071.62 436.311,1073.99 441.247,1071.37 "/>
    <polygon style="fill: none; fill-opacity:0; stroke-width: 2; stroke: #000000" points="436.497,1081.49 431.251,1071.62 436.311,1073.99 441.247,1071.37 "/>
  </g>
  <g>
    <polyline style="fill: none; fill-opacity:0; stroke-width: 2; stroke: #000000" points="748.736,1005.25 825,1005.25 825,1129.44 523.869,1129.44 "/>
    <polygon style="fill: #000000" points="741.236,1005.25 751.236,1000.25 748.736,1005.25 751.236,1010.25 "/>
    <polygon style="fill: none; fill-opacity:0; stroke-width: 2; stroke: #000000" points="741.236,1005.25 751.236,1000.25 748.736,1005.25 751.236,1010.25 "/>
  </g>
  <g>
    <rect style="fill: #ffffff" x="265" y="1225.25" width="345.975" height="38"/>
    <rect style="fill: none; fill-opacity:0; stroke-width: 2; stroke: #000000" x="265" y="1225.25" width="345.975" height="38"/>
    <text font-size="12.7998" style="fill: #000000;text-anchor:middle;font-family:sans-serif;font-style:normal;font-weight:normal" x="437.987" y="1248.15">
      <tspan x="437.987" y="1248.15">At Sea/Captain's Report</tspan>
    </text>
  </g>
  <g>
    <polygon style="fill: #ffffff" points="615,1329.29 680.413,1362 615,1394.71 549.587,1362 "/>
    <polygon style="fill: none; fill-opacity:0; stroke-width: 2; stroke: #000000" points="615,1329.29 680.413,1362 615,1394.71 549.587,1362 "/>
    <text font-size="12.7998" style="fill: #000000;text-anchor:middle;font-family:sans-serif;font-style:normal;font-weight:normal" x="615" y="1365.9">
      <tspan x="615" y="1365.9">Pirates?</tspan>
    </text>
  </g>
  <g>
    <rect style="fill: #ffffff" x="114.775" y="6.5" width="661.225" height="38"/>
    <rect style="fill: none; fill-opacity:0; stroke-width: 2; stroke: #000000" x="114.775" y="6.5" width="661.225" height="38"/>
    <text font-size="12.7998" style="fill: #000000;text-anchor:middle;font-family:sans-serif;font-style:normal;font-weight:normal" x="445.388" y="29.4">
      <tspan x="445.388" y="29.4">Comprador's Report</tspan>
    </text>
  </g>
  <g>
    <polyline style="fill: none; fill-opacity:0; stroke-width: 2; stroke: #000000" points="238.563,925.476 238.563,947.25 435.075,947.25 435.075,976.514 "/>
    <polygon style="fill: #000000" points="435.075,984.014 430.075,974.014 435.075,976.514 440.075,974.014 "/>
    <polygon style="fill: none; fill-opacity:0; stroke-width: 2; stroke: #000000" points="435.075,984.014 430.075,974.014 435.075,976.514 440.075,974.014 "/>
  </g>
  <g>
    <line style="fill: none; fill-opacity:0; stroke-width: 2; stroke: #000000" x1="436.553" y1="1175.16" x2="437.37" y2="1214.53"/>
    <polygon style="fill: #000000" points="437.526,1222.03 432.32,1212.13 437.37,1214.53 442.317,1211.92 "/>
    <polygon style="fill: none; fill-opacity:0; stroke-width: 2; stroke: #000000" points="437.526,1222.03 432.32,1212.13 437.37,1214.53 442.317,1211.92 "/>
  </g>
  <g>
    <polyline style="fill: none; fill-opacity:0; stroke-width: 2; stroke: #000000" points="437.987,1263.25 438,1263.25 438,1362 539.851,1362 "/>
    <polygon style="fill: #000000" points="547.351,1362 537.351,1367 539.851,1362 537.351,1357 "/>
    <polygon style="fill: none; fill-opacity:0; stroke-width: 2; stroke: #000000" points="547.351,1362 537.351,1367 539.851,1362 537.351,1357 "/>
  </g>
  <g>
    <polyline style="fill: none; fill-opacity:0; stroke-width: 2; stroke: #000000" points="647.707,1345.65 647.707,1299 615,1299 615,1319.56 "/>
    <polygon style="fill: #000000" points="615,1327.06 610,1317.06 615,1319.56 620,1317.06 "/>
    <polygon style="fill: none; fill-opacity:0; stroke-width: 2; stroke: #000000" points="615,1327.06 610,1317.06 615,1319.56 620,1317.06 "/>
  </g>
  <g>
    <polyline style="fill: none; fill-opacity:0; stroke-width: 2; stroke: #000000" points="785.736,25.5 1292,25.5 1292,1394.71 615,1394.71 "/>
    <polygon style="fill: #000000" points="778.236,25.5 788.236,20.5 785.736,25.5 788.236,30.5 "/>
    <polygon style="fill: none; fill-opacity:0; stroke-width: 2; stroke: #000000" points="778.236,25.5 788.236,20.5 785.736,25.5 788.236,30.5 "/>
  </g>
  <g>
    <line style="fill: none; fill-opacity:0; stroke-width: 2; stroke: #000000" x1="182.298" y1="194.708" x2="181.766" y2="266.264"/>
    <polygon style="fill: #000000" points="181.71,273.764 176.785,263.727 181.766,266.264 186.785,263.801 "/>
    <polygon style="fill: none; fill-opacity:0; stroke-width: 2; stroke: #000000" points="181.71,273.764 176.785,263.727 181.766,266.264 186.785,263.801 "/>
  </g>
  <g>
    <line style="fill: none; fill-opacity:0; stroke-width: 2; stroke: #000000" x1="269.205" y1="153.337" x2="325.267" y2="154.754"/>
    <polygon style="fill: #000000" points="332.765,154.944 322.642,159.689 325.267,154.754 322.894,149.693 "/>
    <polygon style="fill: none; fill-opacity:0; stroke-width: 2; stroke: #000000" points="332.765,154.944 322.642,159.689 325.267,154.754 322.894,149.693 "/>
  </g>
  <g>
    <line style="fill: none; fill-opacity:0; stroke-width: 2; stroke: #000000" x1="396.85" y1="155" x2="459.714" y2="155.606"/>
    <polygon style="fill: #000000" points="467.214,155.678 457.166,160.582 459.714,155.606 457.263,150.582 "/>
    <polygon style="fill: none; fill-opacity:0; stroke-width: 2; stroke: #000000" points="467.214,155.678 457.166,160.582 459.714,155.606 457.263,150.582 "/>
  </g>
  <g>
    <polyline style="fill: none; fill-opacity:0; stroke-width: 2; stroke: #000000" points="522,138.557 522,98.5569 486.188,98.5569 486.188,126.964 "/>
    <polygon style="fill: #000000" points="486.188,134.464 481.188,124.464 486.188,126.964 491.188,124.464 "/>
    <polygon style="fill: none; fill-opacity:0; stroke-width: 2; stroke: #000000" points="486.188,134.464 481.188,124.464 486.188,126.964 491.188,124.464 "/>
  </g>
  <g>
    <line style="fill: none; fill-opacity:0; stroke-width: 2; stroke: #000000" x1="536.4" y1="155.7" x2="606.565" y2="156.842"/>
    <polygon style="fill: #000000" points="614.064,156.964 603.984,161.8 606.565,156.842 604.147,151.802 "/>
    <polygon style="fill: none; fill-opacity:0; stroke-width: 2; stroke: #000000" points="614.064,156.964 603.984,161.8 606.565,156.842 604.147,151.802 "/>
  </g>
  <g>
    <line style="fill: none; fill-opacity:0; stroke-width: 2; stroke: #000000" x1="743.7" y1="157" x2="817.354" y2="155.233"/>
    <polygon style="fill: #000000" points="824.851,155.054 814.974,160.292 817.354,155.233 814.734,150.295 "/>
    <polygon style="fill: none; fill-opacity:0; stroke-width: 2; stroke: #000000" points="824.851,155.054 814.974,160.292 817.354,155.233 814.734,150.295 "/>
  </g>
  <g>
    <polyline style="fill: none; fill-opacity:0; stroke-width: 2; stroke: #000000" points="882,182.457 882,202.557 181.694,202.557 181.694,266.264 "/>
    <polygon style="fill: #000000" points="181.694,273.764 176.694,263.764 181.694,266.264 186.694,263.764 "/>
    <polygon style="fill: none; fill-opacity:0; stroke-width: 2; stroke: #000000" points="181.694,273.764 176.694,263.764 181.694,266.264 186.694,263.764 "/>
  </g>
  <g>
    <polyline style="fill: none; fill-opacity:0; stroke-width: 2; stroke: #000000" points="445.388,44.5 445.388,78.2336 182.298,78.2336 182.298,102.231 "/>
    <polygon style="fill: #000000" points="182.298,109.731 177.298,99.7312 182.298,102.231 187.298,99.7312 "/>
    <polygon style="fill: none; fill-opacity:0; stroke-width: 2; stroke: #000000" points="182.298,109.731 177.298,99.7312 182.298,102.231 187.298,99.7312 "/>
  </g>
  <text font-size="12.7998" style="fill: #000000;text-anchor:start;font-family:sans-serif;font-style:normal;font-weight:normal" x="33" y="125.5">
    <tspan x="33" y="125.5">Hong Kong only:</tspan>
  </text>
  <text font-size="12.7998" style="fill: #000000;text-anchor:start;font-family:sans-serif;font-style:normal;font-weight:normal" x="110" y="675.5">
    <tspan x="110" y="675.5">Hong Kong only:</tspan>
  </text>
  <text font-size="12.7998" style="fill: #000000;text-anchor:start;font-family:sans-serif;font-style:normal;font-weight:normal" x="105" y="770">
    <tspan x="105" y="770">Hong Kong only:</tspan>
  </text>
  <text font-size="12.7998" style="fill: #000000;text-anchor:start;font-family:sans-serif;font-style:normal;font-weight:normal" x="592" y="1124.75">
    <tspan x="592" y="1124.75">Already here</tspan>
  </text>
  <text font-size="12.7998" style="fill: #000000;text-anchor:start;font-family:sans-serif;font-style:normal;font-weight:normal" x="656" y="1315.25">
    <tspan x="656" y="1315.25">Fight</tspan>
  </text>
  <text font-size="12.7998" style="fill: #000000;text-anchor:start;font-family:sans-serif;font-style:normal;font-weight:normal" x="686" y="1413.25">
    <tspan x="686" y="1413.25">Run | We got 'em all</tspan>
  </text>
  <polyline style="fill: none; fill-opacity:0; stroke-width: 2; stroke: #000000" points="437.987,1263.25 437.987,1470.25 1292,1470.25 1292,1383.25 "/>
  <text font-size="12.7998" style="fill: #000000;text-anchor:start;font-family:sans-serif;font-style:normal;font-weight:normal" x="466" y="1354.25">
    <tspan x="466" y="1354.25">Random</tspan>
  </text>
  <text font-size="12.7998" style="fill: #000000;text-anchor:start;font-family:sans-serif;font-style:normal;font-weight:normal" x="548" y="149.75">
    <tspan x="548" y="149.75">Random</tspan>
  </text>
  <text font-size="12.7998" style="fill: #000000;text-anchor:start;font-family:sans-serif;font-style:normal;font-weight:normal" x="188" y="241.5">
    <tspan x="188" y="241.5">Random</tspan>
  </text>
  <text font-size="12.7998" style="fill: #000000;text-anchor:start;font-family:sans-serif;font-style:normal;font-weight:normal" x="265" y="307.5">
    <tspan x="265" y="307.5">Random</tspan>
  </text>
  <text font-size="12.7998" style="fill: #000000;text-anchor:start;font-family:sans-serif;font-style:normal;font-weight:normal" x="506" y="308.5">
    <tspan x="506" y="308.5">Random</tspan>
  </text>
  <g>
    <polyline style="fill: none; fill-opacity:0; stroke-width: 2; stroke: #000000" points="412.438,353 412.438,373.5 350,373.5 350,428.264 "/>
    <polygon style="fill: #000000" points="350,435.764 345,425.764 350,428.264 355,425.764 "/>
    <polygon style="fill: none; fill-opacity:0; stroke-width: 2; stroke: #000000" points="350,435.764 345,425.764 350,428.264 355,425.764 "/>
  </g>
</svg>
